<svg xmlns="http://www.w3.org/2000/svg" viewBox="0 0 1440 320" preserveAspectRatio="none"><path fill="#fff" fill-opacity="1" d="M0,32L24,53.3C48,75,96,117,144,112C192,107,240,53,288,48C336,43,384,85,432,122.7C480,160,528,192,576,202.7C624,213,672,203,720,208C768,213,816,235,864,218.7C912,203,960,149,1008,128C1056,107,1104,117,1152,138.7C1200,160,1248,192,1296,186.7C1344,181,1392,139,1416,117.3L1440,96L1440,320L1416,320C1392,320,1344,320,1296,320C1248,320,1200,320,1152,320C1104,320,1056,320,1008,320C960,320,912,320,864,320C816,320,768,320,720,320C672,320,624,320,576,320C528,320,480,320,432,320C384,320,336,320,288,320C240,320,192,320,144,320C96,320,48,320,24,320L0,320Z"></path></svg>